<svg xmlns="http://www.w3.org/2000/svg" viewBox="0 0 32 32">
  <defs>
    <linearGradient id="g" x1="0" y1="0" x2="1" y2="1">
      <stop offset="0" stop-color="#54c76f" />
      <stop offset="1" stop-color="#27a8ff" />
    </linearGradient>
  </defs>
  <rect x="1" y="2" width="30" height="30" rx="9" fill="#168c4a" />
  <rect x="1" y="0" width="30" height="30" rx="9" fill="url(#g)" />
  <g transform="translate(8.3,8.3) scale(0.64)" fill="none" stroke="#ffffff" stroke-width="2" stroke-linecap="round" stroke-linejoin="round">
    <path d="M12 7v14"></path>
    <path d="M3 18a1 1 0 0 1-1-1V4a1 1 0 0 1 1-1h5a4 4 0 0 1 4 4 4 4 0 0 1 4-4h5a1 1 0 0 1 1 1v13a1 1 0 0 1-1 1h-6a3 3 0 0 0-3 3 3 3 0 0 0-3-3z"></path>
  </g>
</svg>
